<svg width="500" height="500" viewBox="0 0 500 500" fill="none" xmlns="http://www.w3.org/2000/svg">
<g clip-path="url(#clip0_2689_47)">
<rect width="500" height="500" rx="125" fill="#F92C1C"/>
<g filter="url(#filter0_d_2689_47)">
<path d="M0.40625 184.474C0.40625 117.951 0.40625 84.6888 13.5578 59.371C24.6404 38.036 42.0362 20.6403 63.3712 9.55761C88.6889 -3.59391 121.951 -3.59391 188.474 -3.59391H318.526C385.049 -3.59391 418.311 -3.59391 443.629 9.55761C464.964 20.6403 482.36 38.036 493.442 59.371C506.594 84.6888 506.594 117.951 506.594 184.474V314.525C506.594 381.049 506.594 414.311 493.442 439.629C482.36 460.964 464.964 478.359 443.629 489.442C418.311 502.594 385.049 502.594 318.526 502.594H188.474C121.951 502.594 88.6889 502.594 63.3712 489.442C42.0362 478.359 24.6404 460.964 13.5578 439.629C0.40625 414.311 0.40625 381.049 0.40625 314.525V184.474Z" fill="url(#paint0_linear_2689_47)"/>
</g>
<mask id="mask0_2689_47" style="mask-type:alpha" maskUnits="userSpaceOnUse" x="0" y="-4" width="507" height="507">
<rect x="0.40625" y="-3.59391" width="506.187" height="506.187" rx="116.813" fill="white"/>
</mask>
<g mask="url(#mask0_2689_47)">
<mask id="mask1_2689_47" style="mask-type:alpha" maskUnits="userSpaceOnUse" x="-128" y="-18" width="248" height="248">
<rect x="-127.191" y="-17.4088" width="247.182" height="247.182" fill="#DE6F8E"/>
</mask>
<g mask="url(#mask1_2689_47)">
</g>
<rect x="-120.48" y="-14.3572" width="755.95" height="529.498" rx="16.6509" fill="#3A3E45"/>
<g filter="url(#filter1_ddddd_2689_47)">
<g clip-path="url(#clip1_2689_47)">
<path d="M49.6345 110.291C49.6345 93.2645 63.4373 79.4617 80.464 79.4617H255.677V379.299H49.6345V110.291Z" fill="#1A07F2"/>
<path d="M49.6345 379.299H461.719V569.885C461.719 578.421 454.799 585.341 446.262 585.341H65.0912C56.5547 585.341 49.6345 578.421 49.6345 569.885V379.299Z" fill="#686C73"/>
<path d="M255.677 79.4615H430.889C447.916 79.4615 461.719 93.2643 461.719 110.291V379.299H255.677V79.4615Z" fill="#4065F9"/>
<path d="M96.2771 467.213V451.293H91.8256V449.933C93.4743 449.85 94.6593 449.541 95.3806 449.005C96.1225 448.449 96.5862 447.418 96.7717 445.914H98.2864V467.213H96.2771ZM102.712 467.213L111.058 445.11H113.408L121.816 467.213H119.59L117.025 460.258H107.41L104.814 467.213H102.712ZM108.029 458.558H116.406L113.377 450.304L112.264 447.089H112.202C111.81 448.346 111.45 449.418 111.12 450.304L108.029 458.558ZM132.629 465.915C134.525 465.915 135.958 465.101 136.926 463.473C137.895 461.845 138.379 459.557 138.379 456.61C138.379 453.725 137.874 451.448 136.864 449.778C135.875 448.109 134.463 447.274 132.629 447.274C130.774 447.274 129.342 448.099 128.332 449.747C127.343 451.375 126.848 453.663 126.848 456.61C126.848 459.495 127.343 461.773 128.332 463.442C129.342 465.091 130.774 465.915 132.629 465.915ZM132.598 467.646C130.125 467.646 128.198 466.657 126.818 464.678C125.457 462.7 124.777 460.011 124.777 456.61C124.777 453.189 125.478 450.5 126.879 448.542C128.301 446.563 130.218 445.574 132.629 445.574C135.04 445.574 136.947 446.553 138.348 448.511C139.75 450.469 140.45 453.168 140.45 456.61C140.45 460.031 139.76 462.731 138.379 464.709C137.019 466.667 135.092 467.646 132.598 467.646ZM146.192 467.213C146.481 463.566 147.408 459.98 148.974 456.455C150.561 452.911 152.478 450.056 154.724 447.892V447.831H142.946V446.038H156.795V447.769C154.569 449.933 152.684 452.725 151.138 456.146C149.592 459.547 148.665 463.236 148.356 467.213H146.192ZM160.884 467.213V445.11H175.289V446.934H162.955V454.786H173.466V456.579H162.955V467.213H160.884ZM178.618 467.213C178.638 466.451 178.731 465.729 178.896 465.049C179.061 464.369 179.246 463.792 179.452 463.318C179.658 462.824 179.988 462.319 180.442 461.803C180.895 461.268 181.256 460.866 181.524 460.598C181.791 460.309 182.245 459.938 182.884 459.485C183.543 459.032 183.997 458.733 184.244 458.588C184.512 458.424 185.006 458.125 185.728 457.692C187.521 456.62 188.675 455.827 189.19 455.312C190.117 454.384 190.581 453.22 190.581 451.818C190.581 450.417 190.169 449.314 189.345 448.511C188.52 447.707 187.407 447.305 186.006 447.305C184.501 447.305 183.327 447.759 182.482 448.665C181.616 449.613 181.173 451.004 181.153 452.839H179.112C179.112 450.551 179.741 448.779 180.998 447.522C182.276 446.244 183.986 445.605 186.13 445.605C188.087 445.605 189.654 446.192 190.828 447.367C192.024 448.521 192.621 449.984 192.621 451.757C192.621 452.705 192.487 453.539 192.22 454.261C191.972 454.982 191.519 455.652 190.859 456.27C190.22 456.868 189.674 457.321 189.221 457.63C188.788 457.939 188.077 458.382 187.088 458.959C186.985 459.021 186.913 459.073 186.872 459.114C186.83 459.135 186.768 459.166 186.686 459.207C186.604 459.248 186.531 459.289 186.47 459.33C185.666 459.804 185.037 460.196 184.584 460.505C184.131 460.814 183.595 461.226 182.976 461.742C182.379 462.257 181.905 462.813 181.554 463.411C181.225 464.009 181.008 464.658 180.905 465.359H192.343V467.213H178.618Z" fill="white"/>
<path d="M317.835 467.213V461.803H307.943V459.949L318.113 445.821H319.783V460.134H323.059V461.803H319.783V467.213H317.835ZM309.952 460.134H317.835V449.191H317.773L309.952 460.041V460.134ZM334.377 465.915C336.273 465.915 337.705 465.101 338.674 463.473C339.643 461.845 340.127 459.557 340.127 456.61C340.127 453.725 339.622 451.448 338.612 449.778C337.623 448.109 336.211 447.274 334.377 447.274C332.522 447.274 331.09 448.099 330.08 449.747C329.091 451.375 328.596 453.663 328.596 456.61C328.596 459.495 329.091 461.773 330.08 463.442C331.09 465.091 332.522 465.915 334.377 465.915ZM334.346 467.646C331.873 467.646 329.946 466.657 328.565 464.678C327.205 462.7 326.525 460.011 326.525 456.61C326.525 453.189 327.226 450.5 328.627 448.542C330.049 446.563 331.966 445.574 334.377 445.574C336.788 445.574 338.695 446.553 340.096 448.511C341.498 450.469 342.198 453.168 342.198 456.61C342.198 460.031 341.508 462.731 340.127 464.709C338.767 466.667 336.84 467.646 334.346 467.646ZM353.853 467.646C351.895 467.646 350.257 467.048 348.938 465.853C347.042 464.143 346.094 461.02 346.094 456.486C346.094 453.23 346.774 450.603 348.134 448.603C349.515 446.584 351.462 445.574 353.976 445.574C355.749 445.574 357.161 446.089 358.212 447.12C359.263 448.15 359.881 449.469 360.066 451.077H358.057C357.954 449.964 357.542 449.057 356.82 448.356C356.099 447.655 355.161 447.305 354.007 447.305C352.008 447.305 350.514 448.171 349.525 449.902C348.536 451.612 348.051 453.982 348.072 457.012H348.134C349.453 454.724 351.38 453.581 353.915 453.581C355.852 453.581 357.449 454.24 358.706 455.559C359.984 456.857 360.623 458.496 360.623 460.474C360.643 462.494 360.015 464.194 358.737 465.575C357.459 466.956 355.831 467.646 353.853 467.646ZM353.791 465.977C355.234 465.977 356.408 465.472 357.315 464.462C358.222 463.432 358.675 462.123 358.675 460.536C358.675 458.97 358.222 457.702 357.315 456.734C356.408 455.744 355.234 455.25 353.791 455.25C352.287 455.25 351.04 455.755 350.05 456.765C349.082 457.754 348.598 459.032 348.598 460.598C348.598 462.205 349.072 463.504 350.02 464.493C350.988 465.482 352.245 465.977 353.791 465.977ZM371.07 467.646C369.071 467.646 367.412 467.079 366.093 465.946C364.794 464.792 364.125 463.308 364.083 461.494H366.062C366.433 464.38 368.092 465.822 371.039 465.822C372.585 465.822 373.8 465.328 374.687 464.338C375.593 463.329 376.047 462.01 376.047 460.381C376.047 458.774 375.593 457.496 374.687 456.548C373.78 455.6 372.605 455.126 371.163 455.126C369.06 455.126 367.515 455.848 366.526 457.29H364.609L366.495 446.038H377.036V447.831H367.948L366.773 455.064H366.835C368.071 453.931 369.627 453.364 371.503 453.364C373.337 453.364 374.893 453.993 376.171 455.25C377.448 456.507 378.087 458.238 378.087 460.443C378.087 462.587 377.438 464.328 376.14 465.668C374.862 466.987 373.172 467.646 371.07 467.646ZM382.623 467.213V445.11H397.028V446.934H384.694V454.786H395.204V456.579H384.694V467.213H382.623ZM407.281 467.646C405.426 467.646 403.912 467.141 402.737 466.131C401.562 465.101 400.923 463.73 400.82 462.02H402.861C402.964 463.215 403.396 464.163 404.159 464.864C404.942 465.565 405.962 465.915 407.219 465.915C408.786 465.915 410.002 465.451 410.867 464.524C412.289 463.061 413.021 460.33 413.062 456.332H413C411.743 458.537 409.816 459.64 407.219 459.64C405.282 459.64 403.675 458.99 402.397 457.692C401.119 456.373 400.48 454.724 400.48 452.746C400.46 450.726 401.109 449.026 402.428 447.645C403.747 446.264 405.406 445.574 407.405 445.574C409.239 445.574 410.816 446.13 412.135 447.243C413.186 448.109 413.928 449.314 414.36 450.86C414.793 452.385 415.01 454.343 415.01 456.734C415.01 460.938 414.082 463.957 412.227 465.791C410.95 467.028 409.301 467.646 407.281 467.646ZM407.374 457.97C408.899 457.97 410.146 457.476 411.114 456.486C412.083 455.497 412.567 454.219 412.567 452.653C412.567 451.046 412.083 449.747 411.114 448.758C410.166 447.748 408.94 447.243 407.436 447.243C405.952 447.243 404.746 447.759 403.819 448.789C402.891 449.799 402.428 451.097 402.428 452.684C402.428 454.25 402.881 455.528 403.788 456.517C404.715 457.486 405.911 457.97 407.374 457.97Z" fill="white"/>
<path d="M92.1347 425.995V403.892H103.109C105.52 403.892 107.509 404.459 109.075 405.593C110.662 406.705 111.456 408.334 111.456 410.477C111.456 412.971 110.25 414.764 107.839 415.856V415.949C109.508 416.587 110.538 417.803 110.93 419.596C111.095 420.297 111.198 421.173 111.239 422.224C111.28 423.254 111.332 424.068 111.394 424.666C111.456 425.264 111.6 425.594 111.826 425.655V425.995H105.458C105.273 425.872 105.149 425.542 105.087 425.006C105.026 424.45 104.964 423.749 104.902 422.904C104.84 422.059 104.747 421.379 104.624 420.864C104.418 419.978 104.088 419.328 103.634 418.916C103.181 418.504 102.501 418.298 101.594 418.298H98.5956V425.995H92.1347ZM98.5956 408.962V413.692H102.058C103.975 413.692 104.933 412.909 104.933 411.342C104.933 410.601 104.696 410.024 104.222 409.611C103.748 409.179 103.057 408.962 102.151 408.962H98.5956ZM127.33 424.141C125.764 425.707 123.682 426.49 121.086 426.49C118.489 426.49 116.397 425.707 114.81 424.141C113.223 422.574 112.43 420.575 112.43 418.143C112.43 415.712 113.223 413.713 114.81 412.146C116.397 410.559 118.489 409.766 121.086 409.766C123.682 409.766 125.764 410.559 127.33 412.146C128.897 413.713 129.68 415.712 129.68 418.143C129.68 420.575 128.897 422.574 127.33 424.141ZM121.024 422.595C121.91 422.595 122.58 422.193 123.033 421.389C123.507 420.586 123.744 419.504 123.744 418.143C123.744 416.783 123.507 415.701 123.033 414.898C122.58 414.094 121.91 413.692 121.024 413.692C120.158 413.692 119.499 414.094 119.045 414.898C118.592 415.681 118.365 416.763 118.365 418.143C118.365 419.524 118.592 420.617 119.045 421.42C119.499 422.203 120.158 422.595 121.024 422.595ZM131.239 431.22V426.706H133.187C133.826 426.706 134.289 426.614 134.578 426.428C134.867 426.243 135.011 425.944 135.011 425.532C135.011 425.202 134.774 424.45 134.3 423.275L129.261 410.23H135.413L137.36 416.567C137.504 417.041 137.649 417.597 137.793 418.236C137.958 418.875 138.081 419.401 138.164 419.813L138.288 420.4H138.349C138.659 418.916 138.978 417.639 139.308 416.567L141.224 410.23H147.036L141.657 425.995C140.998 427.912 140.173 429.262 139.184 430.045C138.215 430.828 136.917 431.22 135.289 431.22H131.239ZM157.145 425.995C156.898 425.583 156.723 425.006 156.62 424.264H156.558C155.527 425.686 153.941 426.397 151.797 426.397C150.231 426.397 148.963 425.985 147.995 425.161C147.026 424.336 146.542 423.172 146.542 421.668C146.542 420.06 147.057 418.906 148.088 418.205C149.118 417.484 150.509 417.02 152.261 416.814C153.91 416.629 155.022 416.412 155.6 416.165C156.197 415.918 156.496 415.547 156.496 415.052C156.496 414.042 155.94 413.537 154.827 413.537C153.611 413.537 152.92 414.166 152.756 415.423H147.222C147.284 413.774 147.954 412.414 149.231 411.342C150.509 410.271 152.333 409.735 154.703 409.735C157.011 409.735 158.732 410.085 159.866 410.786C161.494 411.796 162.308 413.372 162.308 415.516V423.399C162.308 424.718 162.504 425.501 162.895 425.748V425.995H157.145ZM153.992 422.935C154.734 422.935 155.363 422.719 155.878 422.286C156.393 421.832 156.651 421.163 156.651 420.276V418.885C156.053 419.174 155.301 419.421 154.394 419.627C153.57 419.813 152.993 420.039 152.663 420.307C152.333 420.575 152.168 420.946 152.168 421.42C152.168 421.915 152.343 422.296 152.694 422.564C153.044 422.811 153.477 422.935 153.992 422.935ZM164.521 425.995V403.892H170.518V425.995H164.521ZM177.509 425.995V403.892H188.947C191.007 403.892 192.656 404.366 193.893 405.314C195.294 406.386 195.995 407.839 195.995 409.673C195.995 411.693 195.078 413.105 193.244 413.908V414.001C194.439 414.393 195.366 415.062 196.026 416.01C196.706 416.958 197.046 418.061 197.046 419.318C197.046 421.647 196.201 423.409 194.511 424.604C193.171 425.532 191.389 425.995 189.163 425.995H177.509ZM183.846 420.926H188.452C189.153 420.926 189.719 420.73 190.152 420.338C190.585 419.947 190.801 419.421 190.801 418.762C190.801 418.082 190.575 417.556 190.121 417.185C189.688 416.814 189.122 416.629 188.421 416.629H183.846V420.926ZM183.846 412.486H187.865C188.503 412.486 189.008 412.342 189.379 412.054C189.75 411.744 189.936 411.301 189.936 410.724C189.936 410.168 189.74 409.725 189.348 409.395C188.957 409.065 188.452 408.9 187.834 408.9H183.846V412.486ZM198.393 425.995V403.892H204.39V425.995H198.393ZM222.558 425.995H216.994V423.955H216.901C215.665 425.645 214.026 426.49 211.986 426.49C210.152 426.49 208.75 425.944 207.782 424.852C206.834 423.759 206.36 422.276 206.36 420.4V410.23H212.202V419.009C212.202 420.678 212.903 421.513 214.304 421.513C215.067 421.513 215.654 421.266 216.067 420.771C216.499 420.276 216.716 419.596 216.716 418.731V410.23H222.558V425.995ZM232.633 426.428C230.077 426.428 227.996 425.645 226.388 424.079C224.801 422.513 224.008 420.513 224.008 418.082C224.008 415.67 224.791 413.671 226.357 412.084C227.924 410.498 229.943 409.704 232.416 409.704C234.745 409.704 236.682 410.415 238.228 411.837C240.124 413.589 241.041 416.155 240.979 419.535H229.727C230.098 421.492 231.128 422.471 232.818 422.471C233.849 422.471 234.58 422.08 235.013 421.297H240.67C240.32 422.78 239.32 424.048 237.672 425.099C236.291 425.985 234.611 426.428 232.633 426.428ZM232.54 413.63C230.994 413.63 230.057 414.568 229.727 416.443H235.168C235.044 415.557 234.745 414.867 234.271 414.372C233.818 413.877 233.241 413.63 232.54 413.63Z" fill="#F1F1F1"/>
</g>
</g>
</g>
</g>
<defs>
<filter id="filter0_d_2689_47" x="-23.9297" y="-18.1955" width="554.859" height="554.859" filterUnits="userSpaceOnUse" color-interpolation-filters="sRGB">
<feFlood flood-opacity="0" result="BackgroundImageFix"/>
<feColorMatrix in="SourceAlpha" type="matrix" values="0 0 0 0 0 0 0 0 0 0 0 0 0 0 0 0 0 0 127 0" result="hardAlpha"/>
<feOffset dy="9.73438"/>
<feGaussianBlur stdDeviation="12.168"/>
<feColorMatrix type="matrix" values="0 0 0 0 0 0 0 0 0 0 0 0 0 0 0 0 0 0 0.2 0"/>
<feBlend mode="normal" in2="BackgroundImageFix" result="effect1_dropShadow_2689_47"/>
<feBlend mode="normal" in="SourceGraphic" in2="effect1_dropShadow_2689_47" result="shape"/>
</filter>
<filter id="filter1_ddddd_2689_47" x="-70.2718" y="79.4617" width="651.897" height="739.542" filterUnits="userSpaceOnUse" color-interpolation-filters="sRGB">
<feFlood flood-opacity="0" result="BackgroundImageFix"/>
<feColorMatrix in="SourceAlpha" type="matrix" values="0 0 0 0 0 0 0 0 0 0 0 0 0 0 0 0 0 0 127 0" result="hardAlpha"/>
<feOffset dy="7.49414"/>
<feGaussianBlur stdDeviation="3.74707"/>
<feColorMatrix type="matrix" values="0 0 0 0 0 0 0 0 0 0 0 0 0 0 0 0 0 0 0.25 0"/>
<feBlend mode="normal" in2="BackgroundImageFix" result="effect1_dropShadow_2689_47"/>
<feColorMatrix in="SourceAlpha" type="matrix" values="0 0 0 0 0 0 0 0 0 0 0 0 0 0 0 0 0 0 127 0" result="hardAlpha"/>
<feOffset dy="14.9883"/>
<feGaussianBlur stdDeviation="7.49414"/>
<feColorMatrix type="matrix" values="0 0 0 0 0 0 0 0 0 0 0 0 0 0 0 0 0 0 0.25 0"/>
<feBlend mode="normal" in2="effect1_dropShadow_2689_47" result="effect2_dropShadow_2689_47"/>
<feColorMatrix in="SourceAlpha" type="matrix" values="0 0 0 0 0 0 0 0 0 0 0 0 0 0 0 0 0 0 127 0" result="hardAlpha"/>
<feOffset dy="29.9766"/>
<feGaussianBlur stdDeviation="14.9883"/>
<feColorMatrix type="matrix" values="0 0 0 0 0 0 0 0 0 0 0 0 0 0 0 0 0 0 0.25 0"/>
<feBlend mode="normal" in2="effect2_dropShadow_2689_47" result="effect3_dropShadow_2689_47"/>
<feColorMatrix in="SourceAlpha" type="matrix" values="0 0 0 0 0 0 0 0 0 0 0 0 0 0 0 0 0 0 127 0" result="hardAlpha"/>
<feOffset dy="59.9531"/>
<feGaussianBlur stdDeviation="29.9766"/>
<feColorMatrix type="matrix" values="0 0 0 0 0 0 0 0 0 0 0 0 0 0 0 0 0 0 0.25 0"/>
<feBlend mode="normal" in2="effect3_dropShadow_2689_47" result="effect4_dropShadow_2689_47"/>
<feColorMatrix in="SourceAlpha" type="matrix" values="0 0 0 0 0 0 0 0 0 0 0 0 0 0 0 0 0 0 127 0" result="hardAlpha"/>
<feOffset dy="119.906"/>
<feGaussianBlur stdDeviation="59.9531"/>
<feColorMatrix type="matrix" values="0 0 0 0 0 0 0 0 0 0 0 0 0 0 0 0 0 0 0.25 0"/>
<feBlend mode="normal" in2="effect4_dropShadow_2689_47" result="effect5_dropShadow_2689_47"/>
<feBlend mode="normal" in="SourceGraphic" in2="effect5_dropShadow_2689_47" result="shape"/>
</filter>
<linearGradient id="paint0_linear_2689_47" x1="253.5" y1="-3.59391" x2="253.5" y2="502.594" gradientUnits="userSpaceOnUse">
<stop stop-color="#202428" stop-opacity="0.28"/>
<stop offset="1" stop-color="#1B1D20"/>
</linearGradient>
<clipPath id="clip0_2689_47">
<rect width="500" height="500" rx="125" fill="white"/>
</clipPath>
<clipPath id="clip1_2689_47">
<rect x="49.6345" y="79.4617" width="412.084" height="499.729" rx="37.4707" fill="white"/>
</clipPath>
</defs>
</svg>
