<svg width="330" height="330" viewBox="0 0 330 330" fill="none" xmlns="http://www.w3.org/2000/svg">
<g clip-path="url(#clip0_130_34)">
<path d="M0 122.259C0 79.0137 0 57.3908 8.54954 40.9323C15.7542 27.0628 27.0628 15.7542 40.9323 8.54954C57.3908 0 79.0137 0 122.259 0H206.803C250.049 0 271.672 0 288.13 8.54954C302 15.7542 313.308 27.0628 320.513 40.9323C329.062 57.3908 329.062 79.0137 329.062 122.259V206.803C329.062 250.049 329.062 271.672 320.513 288.13C313.308 302 302 313.308 288.13 320.513C271.672 329.062 250.049 329.062 206.803 329.062H122.259C79.0137 329.062 57.3908 329.062 40.9323 320.513C27.0628 313.308 15.7542 302 8.54954 288.13C0 271.672 0 250.049 0 206.803V122.259Z" fill="#FAFAFA"/>
<mask id="mask0_130_34" style="mask-type:alpha" maskUnits="userSpaceOnUse" x="0" y="0" width="330" height="330">
<rect width="329.062" height="329.062" rx="75.9375" fill="white"/>
</mask>
<g mask="url(#mask0_130_34)">
<rect x="-435.969" y="109.031" width="1200" height="44.7359" fill="#E46600"/>
<rect x="-435.969" y="153.768" width="1200" height="44.8962" fill="#E40539"/>
<rect x="-435.969" y="198.663" width="1200" height="44.7359" fill="#C3047D"/>
<rect x="-435.969" y="243.399" width="1200" height="44.8962" fill="#0048AB"/>
<rect x="-435.969" y="288.295" width="1200" height="44.7359" fill="#039541"/>
</g>
</g>
<defs>
<clipPath id="clip0_130_34">
<rect width="329.062" height="329.062" fill="white"/>
</clipPath>
</defs>
</svg>
