<svg width="325" height="325" viewBox="0 0 325 325" fill="none" xmlns="http://www.w3.org/2000/svg">
<path d="M0 120.75C0 78.0382 0 56.6823 8.44399 40.4269C15.5597 26.7287 26.7287 15.5597 40.4269 8.44399C56.6823 0 78.0382 0 120.75 0H204.25C246.962 0 268.318 0 284.573 8.44399C298.271 15.5597 309.44 26.7287 316.556 40.4269C325 56.6823 325 78.0382 325 120.75V204.25C325 246.962 325 268.318 316.556 284.573C309.44 298.271 298.271 309.44 284.573 316.556C268.318 325 246.962 325 204.25 325H120.75C78.0382 325 56.6823 325 40.4269 316.556C26.7287 309.44 15.5597 298.271 8.44399 284.573C0 268.318 0 246.962 0 204.25V120.75Z" fill="#ff2700"/>
<g clip-path="url(#clip0_710_3)">
<path d="M167.112 75.1749H158.707V248.993H167.112V75.1749Z" fill="white"/>
<path d="M167.112 75.1749H158.707V248.993H167.112V75.1749Z" fill="white"/>
<path d="M249.818 157.881H76V166.286H249.818V157.881Z" fill="white"/>
<path d="M249.818 157.881H76V166.286H249.818V157.881Z" fill="white"/>
<path d="M104.412 97.6528L98.4688 103.596L221.376 226.503L227.318 220.559L104.412 97.6528Z" fill="white"/>
<path d="M104.412 97.6528L98.4688 103.596L221.376 226.503L227.318 220.559L104.412 97.6528Z" fill="white"/>
<path d="M221.376 97.6512L98.4688 220.557L104.412 226.5L227.318 103.594L221.376 97.6512Z" fill="white"/>
<path d="M221.376 97.6512L98.4688 220.557L104.412 226.5L227.318 103.594L221.376 97.6512Z" fill="white"/>
<path d="M84.0328 125.429L80.8616 133.213L241.834 198.795L245.005 191.01L84.0328 125.429Z" fill="white"/>
<path d="M84.0328 125.429L80.8616 133.213L241.834 198.795L245.005 191.01L84.0328 125.429Z" fill="white"/>
<path d="M191.835 80.0485L126.254 241.021L134.038 244.192L199.619 83.2197L191.835 80.0485Z" fill="white"/>
<path d="M191.835 80.0485L126.254 241.021L134.038 244.192L199.619 83.2197L191.835 80.0485Z" fill="white"/>
<path d="M242.026 125.721L80.7751 190.625L83.9136 198.422L245.164 133.519L242.026 125.721Z" fill="white"/>
<path d="M242.026 125.721L80.7751 190.625L83.9136 198.422L245.164 133.519L242.026 125.721Z" fill="white"/>
<path d="M134.309 79.9529L126.511 83.0905L191.397 244.341L199.194 241.204L134.309 79.9529Z" fill="white"/>
<path d="M134.309 79.9529L126.511 83.0905L191.397 244.341L199.194 241.204L134.309 79.9529Z" fill="white"/>
</g>
<defs>
<clipPath id="clip0_710_3">
<rect width="173.818" height="175" fill="white" transform="translate(76 75)"/>
</clipPath>
</defs>
</svg>
