<svg width="297" height="297" viewBox="0 0 297 297" fill="none" xmlns="http://www.w3.org/2000/svg">
<mask id="mask0_22_105" style="mask-type:alpha" maskUnits="userSpaceOnUse" x="0" y="2" width="295" height="295">
<rect x="0.84375" y="2.84375" width="293.312" height="293.312" rx="67.6875" fill="white"/>
</mask>
<g mask="url(#mask0_22_105)">
<mask id="mask1_22_105" style="mask-type:alpha" maskUnits="userSpaceOnUse" x="-33" y="-31" width="361" height="361">
<rect x="-33" y="-31" width="361" height="361" fill="#DE6F8E"/>
</mask>
<g mask="url(#mask1_22_105)">
<path d="M-33 -31H328V330H-33V-31Z" fill="#F7D9FF"/>
<path d="M310.872 149.5C321.789 205.588 406.298 304.591 443.377 333.952L-46.9282 344.869L-39.3995 -48.6926C12.6738 -47.3123 120.87 -43.3583 126.796 -31.9413C155.028 22.4534 206.6 8.9018 235.021 27.5353C263.441 46.1687 299.955 93.4112 310.872 149.5Z" fill="#FFB16B"/>
<path d="M295.626 154.394C320.471 204.836 400.463 292.984 437.354 330.753L-39.3997 336.588V-37.7757C5.39594 -37.5247 98.3374 -35.6677 111.738 -30.247C128.49 -23.4712 116.82 8.33745 174.603 27.5356C232.385 46.7337 264.571 91.3411 295.626 154.394Z" fill="#FF8786"/>
<path d="M434.342 330.376H-32.812V-31H13.8658C15.6852 -29.3688 24.1425 -22.5302 43.4159 -8.22575C67.5076 9.65485 79.7417 39.2049 95.552 57.0855C111.362 74.9661 149.194 76.2836 195.872 91.341C242.549 106.398 277.558 137.454 296.191 178.674C311.098 211.649 394.503 293.549 434.342 330.376Z" fill="#FF677D"/>
<path d="M-33.5648 330.376V17.9365C-19.3858 26.4062 15.2963 49.7828 40.5927 75.5308C72.2131 107.716 103.081 105.081 183.449 140.842C263.818 176.603 254.219 181.309 283.204 230.057C306.393 269.055 382.081 313.186 417.026 330.376H-33.5648Z" fill="#FB25DF"/>
<path d="M-33.5648 332.447V98.3051C-17.0644 124.404 33.4028 146.489 54.3325 160.793C80.4946 178.674 169.333 179.427 202.836 194.484C236.338 209.541 253.654 256.972 269.464 280.875C282.113 299.998 338.352 323.224 364.89 332.447H-33.5648Z" fill="#BE29FF"/>
<path d="M-33.5648 177.168V331.129H259.865C235.962 331.129 228.245 286.522 196.624 257.537C162.068 225.86 105.904 217.07 53.7679 217.07C18.185 217.07 -11.6062 199.879 -33.5648 177.168Z" fill="#7937FF"/>
<path d="M-33.5648 278.24V329.812C14.556 332.51 99.1281 329.812 99.1281 329.812C87.4587 321.719 89.3408 306.285 40.028 303.65C0.577751 301.542 -25.4715 285.832 -33.5648 278.24Z" fill="#5D22FF"/>
</g>
</g>
</svg>
