<svg width="325" height="325" viewBox="0 0 325 325" fill="none" xmlns="http://www.w3.org/2000/svg">
<path d="M0 120.75C0 78.0382 0 56.6823 8.44399 40.4269C15.5597 26.7287 26.7287 15.5597 40.4269 8.44399C56.6823 0 78.0382 0 120.75 0H204.25C246.962 0 268.318 0 284.573 8.44399C298.271 15.5597 309.44 26.7287 316.556 40.4269C325 56.6823 325 78.0382 325 120.75V204.25C325 246.962 325 268.318 316.556 284.573C309.44 298.271 298.271 309.44 284.573 316.556C268.318 325 246.962 325 204.25 325H120.75C78.0382 325 56.6823 325 40.4269 316.556C26.7287 309.44 15.5597 298.271 8.44399 284.573C0 268.318 0 246.962 0 204.25V120.75Z" fill="#010101"/>
<path d="M201.131 112.175L162.386 150.919L123.111 112.175L162.386 72.9002L201.131 112.175ZM251.02 162.065L212.276 201.34L173.532 162.065L212.276 123.321L251.02 162.065ZM151.241 162.065L111.966 201.34L72.6909 162.065L111.966 123.321L151.241 162.065ZM201.131 212.485L162.386 251.23L123.111 212.485L162.386 173.211L201.131 212.485Z" fill="white"/>
</svg>
