<svg width="500" height="500" viewBox="0 0 500 500" fill="none" xmlns="http://www.w3.org/2000/svg">
<g clip-path="url(#clip0_2685_90)">
<rect width="500" height="500" rx="125" fill="#0054A6"/>
<g clip-path="url(#clip1_2685_90)">
<rect x="-0.0454102" width="500" height="500" fill="#1B1D20"/>
<rect width="500" height="500" transform="translate(-0.277344 -0.445618)" fill="#010101"/>
<g clip-path="url(#clip2_2685_90)">
<path d="M257.669 79.8453H241.347V417.372H257.669V79.8453Z" fill="#F5F5F5"/>
<path d="M257.669 79.8453H241.347V417.372H257.669V79.8453Z" fill="#F5F5F5"/>
<path d="M418.269 240.448H80.7427V256.769H418.269V240.448Z" fill="#F5F5F5"/>
<path d="M418.269 240.448H80.7427V256.769H418.269V240.448Z" fill="#F5F5F5"/>
<path d="M135.915 123.494L124.374 135.035L363.04 373.7L374.58 362.158L135.915 123.494Z" fill="#F5F5F5"/>
<path d="M135.915 123.494L124.374 135.035L363.04 373.7L374.58 362.158L135.915 123.494Z" fill="#F5F5F5"/>
<path d="M363.04 123.491L124.374 362.155L135.915 373.696L374.58 135.031L363.04 123.491Z" fill="#F5F5F5"/>
<path d="M363.04 123.491L124.374 362.155L135.915 373.696L374.58 135.031L363.04 123.491Z" fill="#F5F5F5"/>
<path d="M96.3412 177.431L90.1831 192.546L402.766 319.896L408.924 304.779L96.3412 177.431Z" fill="#F5F5F5"/>
<path d="M96.3412 177.431L90.1831 192.546L402.766 319.896L408.924 304.779L96.3412 177.431Z" fill="#F5F5F5"/>
<path d="M305.676 89.3089L178.327 401.892L193.442 408.05L320.791 95.467L305.676 89.3089Z" fill="#F5F5F5"/>
<path d="M305.676 89.3089L178.327 401.892L193.442 408.05L320.791 95.467L305.676 89.3089Z" fill="#F5F5F5"/>
<path d="M403.138 177.999L90.0146 304.031L96.109 319.172L409.232 193.14L403.138 177.999Z" fill="#F5F5F5"/>
<path d="M403.138 177.999L90.0146 304.031L96.109 319.172L409.232 193.14L403.138 177.999Z" fill="#F5F5F5"/>
<path d="M193.969 89.1234L178.827 95.2162L304.826 408.339L319.966 402.248L193.969 89.1234Z" fill="#F5F5F5"/>
<path d="M193.969 89.1234L178.827 95.2162L304.826 408.339L319.966 402.248L193.969 89.1234Z" fill="#F5F5F5"/>
</g>
</g>
</g>
<defs>
<clipPath id="clip0_2685_90">
<rect width="500" height="500" rx="125" fill="white"/>
</clipPath>
<clipPath id="clip1_2685_90">
<rect x="-0.0454102" width="500" height="500" fill="white"/>
</clipPath>
<clipPath id="clip2_2685_90">
<rect width="337.526" height="339.823" fill="white" transform="translate(80.7427 79.5056)"/>
</clipPath>
</defs>
</svg>
