<svg width="500" height="500" viewBox="0 0 500 500" fill="none" xmlns="http://www.w3.org/2000/svg">
<g clip-path="url(#clip0_2685_18)">
<rect width="500" height="500" rx="125" fill="#0054A6"/>
<g filter="url(#filter0_i_2685_18)">
<mask id="mask0_2685_18" style="mask-type:luminance" maskUnits="userSpaceOnUse" x="0" y="0" width="500" height="500">
<path fill-rule="evenodd" clip-rule="evenodd" d="M500 155.72C500 149.785 500.002 143.848 499.966 137.912C499.936 132.912 499.879 127.912 499.743 122.914C499.449 112.02 498.806 101.033 496.869 90.2606C494.904 79.3329 491.695 69.1624 486.639 59.2334C481.668 49.4743 475.175 40.5442 467.427 32.8021C459.682 25.06 450.749 18.5709 440.986 13.6031C431.047 8.54548 420.866 5.33797 409.926 3.37377C399.152 1.43932 388.162 0.797934 377.268 0.503639C372.267 0.368324 367.265 0.311285 362.262 0.280339C356.323 0.243931 350.383 0.246965 344.444 0.246965L275.483 0H223.906L156.166 0.246965C150.215 0.246965 144.264 0.243931 138.313 0.280339C133.3 0.311285 128.289 0.368324 123.278 0.503639C112.358 0.797934 101.343 1.43992 90.5442 3.37681C79.5898 5.34039 69.3933 8.54669 59.4407 13.6007C49.6574 18.5691 40.7054 25.0588 32.9433 32.8021C25.1825 40.5435 18.677 49.4719 13.6971 59.2292C8.62676 69.163 5.41197 79.3395 3.44233 90.2733C1.50302 101.042 0.860431 112.025 0.564923 122.914C0.430215 127.913 0.371963 132.912 0.341624 137.912C0.305216 143.849 0 151.223 0 157.16L0.00182038 223.962L0 276.091L0.30825 344.312C0.30825 350.257 0.305823 356.201 0.341624 362.145C0.371963 367.152 0.430215 372.158 0.56553 377.164C0.860431 388.071 1.50424 399.074 3.44536 409.861C5.4144 420.804 8.62858 430.989 13.6947 440.93C18.6752 450.703 25.1819 459.645 32.9433 467.398C40.7048 475.151 49.6544 481.649 59.4358 486.624C69.3945 491.688 79.5959 494.9 90.557 496.867C101.351 498.804 112.363 499.447 123.278 499.741C128.289 499.876 133.301 499.934 138.314 499.964C144.265 500.001 150.215 499.998 156.166 499.998L224.518 500H276.224L344.444 499.998C350.383 499.998 356.323 500.001 362.262 499.964C367.265 499.934 372.267 499.876 377.268 499.741C388.166 499.446 399.16 498.803 409.939 496.864C420.872 494.898 431.048 491.687 440.982 486.626C450.747 481.651 459.681 475.152 467.427 467.398C475.174 459.646 481.666 450.706 486.637 440.935C491.697 430.988 494.905 420.798 496.871 409.849C498.807 399.066 499.449 388.067 499.743 377.164C499.879 372.158 499.936 367.152 499.966 362.145C500.003 356.201 500 350.257 500 344.312C500 344.312 499.996 277.296 499.996 276.091V223.907C499.996 223.017 500 155.72 500 155.72" fill="white"/>
</mask>
<g mask="url(#mask0_2685_18)">
<rect x="-27.3059" y="-27.3058" width="554.612" height="554.612" fill="url(#paint0_linear_2685_18)"/>
</g>
</g>
<g filter="url(#filter1_dd_2685_18)">
<path fill-rule="evenodd" clip-rule="evenodd" d="M317.627 408.26C322.682 410.226 328.448 410.099 333.551 407.65L399.64 375.921C406.584 372.587 411 365.574 411 357.881V142.742C411 135.048 406.584 128.036 399.64 124.702L333.551 92.9725C326.854 89.7573 319.016 90.5448 313.139 94.8083C312.299 95.4173 311.499 96.0973 310.749 96.8467L184.23 212.011L129.121 170.273C123.991 166.388 116.815 166.706 112.051 171.031L94.3753 187.072C88.5473 192.362 88.5406 201.51 94.3609 206.808L142.153 250.311L94.3609 293.814C88.5406 299.112 88.5473 308.26 94.3753 313.55L112.051 329.591C116.815 333.916 123.991 334.233 129.121 330.349L184.23 288.611L310.749 403.775C312.75 405.773 315.1 407.278 317.627 408.26ZM330.155 177.789L235.044 250.311L330.155 322.833V177.789Z" fill="black" fill-opacity="0.01"/>
</g>
<mask id="mask1_2685_18" style="mask-type:luminance" maskUnits="userSpaceOnUse" x="90" y="91" width="321" height="319">
<path fill-rule="evenodd" clip-rule="evenodd" d="M317.627 408.26C322.682 410.226 328.448 410.099 333.551 407.65L399.64 375.921C406.584 372.587 411 365.574 411 357.881V142.742C411 135.048 406.584 128.036 399.64 124.702L333.551 92.9725C326.854 89.7573 319.016 90.5448 313.139 94.8083C312.299 95.4173 311.499 96.0973 310.749 96.8467L184.23 212.011L129.121 170.273C123.991 166.388 116.815 166.706 112.051 171.031L94.3753 187.072C88.5473 192.362 88.5406 201.51 94.3609 206.808L142.153 250.311L94.3609 293.814C88.5406 299.112 88.5473 308.26 94.3753 313.55L112.051 329.591C116.815 333.916 123.991 334.233 129.121 330.349L184.23 288.611L310.749 403.775C312.75 405.773 315.1 407.278 317.627 408.26ZM330.155 177.789L235.044 250.311L330.155 322.833V177.789Z" fill="white"/>
</mask>
<g mask="url(#mask1_2685_18)">
<g filter="url(#filter2_iiii_2685_18)">
<path d="M399.606 123.626L333.261 91.79C325.582 88.1059 316.404 89.6602 310.377 95.6658L93.1881 293.02C87.3463 298.328 87.353 307.494 93.2026 312.794L110.943 328.867C115.726 333.2 122.928 333.519 128.077 329.626L389.623 131.885C398.397 125.251 411 131.488 411 142.465V141.696C411 133.992 406.571 126.969 399.606 123.626Z" fill="#016BB3"/>
</g>
<g filter="url(#filter3_iiii_2685_18)">
<path d="M399.606 375.808L333.261 407.643C325.582 411.327 316.404 409.773 310.377 403.767L93.1881 206.414C87.3463 201.105 87.353 191.939 93.2026 186.639L110.943 170.566C115.726 166.233 122.928 165.914 128.077 169.807L389.623 367.548C398.397 374.182 411 367.946 411 356.969V357.737C411 365.441 406.571 372.465 399.606 375.808Z" fill="#0389E4"/>
</g>
<rect x="91.189" y="71.9777" width="240.156" height="344.778" fill="url(#paint1_linear_2685_18)"/>
<g filter="url(#filter4_ii_2685_18)">
<path d="M332.93 407.65C325.215 411.324 315.998 409.771 309.945 403.776C317.402 411.163 330.156 405.931 330.156 395.484V105.138C330.156 94.6916 317.402 89.4599 309.945 96.8467C315.998 90.8516 325.215 89.298 332.93 92.9725L399.548 124.702C406.549 128.036 411 135.049 411 142.742V357.882C411 365.575 406.549 372.587 399.548 375.921L332.93 407.65Z" fill="#1F9CF0"/>
</g>
<mask id="mask2_2685_18" style="mask-type:luminance" maskUnits="userSpaceOnUse" x="309" y="91" width="103" height="319">
<path d="M332.93 407.65C325.215 411.324 315.998 409.771 309.945 403.776C317.402 411.163 330.156 405.931 330.156 395.484V105.138C330.156 94.6916 317.402 89.4599 309.945 96.8467C315.998 90.8516 325.215 89.298 332.93 92.9725L399.548 124.702C406.549 128.036 411 135.049 411 142.742V357.882C411 365.575 406.549 372.587 399.548 375.921L332.93 407.65Z" fill="white"/>
</mask>
<g mask="url(#mask2_2685_18)">
<rect x="88.811" y="91" width="322.189" height="318.622" fill="url(#paint2_linear_2685_18)"/>
<rect x="88.811" y="91" width="322.189" height="318.622" fill="url(#paint3_linear_2685_18)"/>
</g>
</g>
</g>
<defs>
<filter id="filter0_i_2685_18" x="0" y="0" width="500" height="507.282" filterUnits="userSpaceOnUse" color-interpolation-filters="sRGB">
<feFlood flood-opacity="0" result="BackgroundImageFix"/>
<feBlend mode="normal" in="SourceGraphic" in2="BackgroundImageFix" result="shape"/>
<feColorMatrix in="SourceAlpha" type="matrix" values="0 0 0 0 0 0 0 0 0 0 0 0 0 0 0 0 0 0 127 0" result="hardAlpha"/>
<feOffset dy="7.28155"/>
<feGaussianBlur stdDeviation="21.2379"/>
<feComposite in2="hardAlpha" operator="arithmetic" k2="-1" k3="1"/>
<feColorMatrix type="matrix" values="0 0 0 0 1 0 0 0 0 1 0 0 0 0 1 0 0 0 0.07 0"/>
<feBlend mode="normal" in2="shape" result="effect1_innerShadow_2685_18"/>
</filter>
<filter id="filter1_dd_2685_18" x="40.0667" y="66.0333" width="397.089" height="394.711" filterUnits="userSpaceOnUse" color-interpolation-filters="sRGB">
<feFlood flood-opacity="0" result="BackgroundImageFix"/>
<feColorMatrix in="SourceAlpha" type="matrix" values="0 0 0 0 0 0 0 0 0 0 0 0 0 0 0 0 0 0 127 0" result="hardAlpha"/>
<feOffset dx="-7.13333" dy="7.13333"/>
<feGaussianBlur stdDeviation="6.83611"/>
<feColorMatrix type="matrix" values="0 0 0 0 0.00286458 0 0 0 0 0.0486406 0 0 0 0 0.1375 0 0 0 0.337821 0"/>
<feBlend mode="normal" in2="BackgroundImageFix" result="effect1_dropShadow_2685_18"/>
<feColorMatrix in="SourceAlpha" type="matrix" values="0 0 0 0 0 0 0 0 0 0 0 0 0 0 0 0 0 0 127 0" result="hardAlpha"/>
<feOffset dx="-11.8889" dy="13.0778"/>
<feGaussianBlur stdDeviation="19.0222"/>
<feColorMatrix type="matrix" values="0 0 0 0 0 0 0 0 0 0.0845 0 0 0 0 0.1625 0 0 0 0.5 0"/>
<feBlend mode="normal" in2="effect1_dropShadow_2685_18" result="effect2_dropShadow_2685_18"/>
<feBlend mode="normal" in="SourceGraphic" in2="effect2_dropShadow_2685_18" result="shape"/>
</filter>
<filter id="filter2_iiii_2685_18" x="86.4333" y="87.4333" width="328.133" height="256.8" filterUnits="userSpaceOnUse" color-interpolation-filters="sRGB">
<feFlood flood-opacity="0" result="BackgroundImageFix"/>
<feBlend mode="normal" in="SourceGraphic" in2="BackgroundImageFix" result="shape"/>
<feColorMatrix in="SourceAlpha" type="matrix" values="0 0 0 0 0 0 0 0 0 0 0 0 0 0 0 0 0 0 127 0" result="hardAlpha"/>
<feOffset dx="1.18889" dy="1.18889"/>
<feGaussianBlur stdDeviation="4.75556"/>
<feComposite in2="hardAlpha" operator="arithmetic" k2="-1" k3="1"/>
<feColorMatrix type="matrix" values="0 0 0 0 0 0 0 0 0 0 0 0 0 0 0 0 0 0 0.306543 0"/>
<feBlend mode="normal" in2="shape" result="effect1_innerShadow_2685_18"/>
<feColorMatrix in="SourceAlpha" type="matrix" values="0 0 0 0 0 0 0 0 0 0 0 0 0 0 0 0 0 0 127 0" result="hardAlpha"/>
<feOffset dx="3.56667" dy="11.8889"/>
<feGaussianBlur stdDeviation="6.83611"/>
<feComposite in2="hardAlpha" operator="arithmetic" k2="-1" k3="1"/>
<feColorMatrix type="matrix" values="0 0 0 0 0 0 0 0 0 0 0 0 0 0 0 0 0 0 0.279748 0"/>
<feBlend mode="normal" in2="effect1_innerShadow_2685_18" result="effect2_innerShadow_2685_18"/>
<feColorMatrix in="SourceAlpha" type="matrix" values="0 0 0 0 0 0 0 0 0 0 0 0 0 0 0 0 0 0 127 0" result="hardAlpha"/>
<feOffset dy="-1.18889"/>
<feGaussianBlur stdDeviation="0.891667"/>
<feComposite in2="hardAlpha" operator="arithmetic" k2="-1" k3="1"/>
<feColorMatrix type="matrix" values="0 0 0 0 1 0 0 0 0 1 0 0 0 0 1 0 0 0 0.614012 0"/>
<feBlend mode="normal" in2="effect2_innerShadow_2685_18" result="effect3_innerShadow_2685_18"/>
<feColorMatrix in="SourceAlpha" type="matrix" values="0 0 0 0 0 0 0 0 0 0 0 0 0 0 0 0 0 0 127 0" result="hardAlpha"/>
<feOffset dx="-2.37778" dy="-2.37778"/>
<feGaussianBlur stdDeviation="3.26944"/>
<feComposite in2="hardAlpha" operator="arithmetic" k2="-1" k3="1"/>
<feColorMatrix type="matrix" values="0 0 0 0 1 0 0 0 0 1 0 0 0 0 1 0 0 0 0.173997 0"/>
<feBlend mode="normal" in2="effect3_innerShadow_2685_18" result="effect4_innerShadow_2685_18"/>
</filter>
<filter id="filter3_iiii_2685_18" x="86.4333" y="155.2" width="328.133" height="256.8" filterUnits="userSpaceOnUse" color-interpolation-filters="sRGB">
<feFlood flood-opacity="0" result="BackgroundImageFix"/>
<feBlend mode="normal" in="SourceGraphic" in2="BackgroundImageFix" result="shape"/>
<feColorMatrix in="SourceAlpha" type="matrix" values="0 0 0 0 0 0 0 0 0 0 0 0 0 0 0 0 0 0 127 0" result="hardAlpha"/>
<feOffset dx="0.594444" dy="-1.18889"/>
<feGaussianBlur stdDeviation="4.75556"/>
<feComposite in2="hardAlpha" operator="arithmetic" k2="-1" k3="1"/>
<feColorMatrix type="matrix" values="0 0 0 0 0 0 0 0 0 0 0 0 0 0 0 0 0 0 0.308167 0"/>
<feBlend mode="normal" in2="shape" result="effect1_innerShadow_2685_18"/>
<feColorMatrix in="SourceAlpha" type="matrix" values="0 0 0 0 0 0 0 0 0 0 0 0 0 0 0 0 0 0 127 0" result="hardAlpha"/>
<feOffset dx="3.56667" dy="-11.8889"/>
<feGaussianBlur stdDeviation="6.83611"/>
<feComposite in2="hardAlpha" operator="arithmetic" k2="-1" k3="1"/>
<feColorMatrix type="matrix" values="0 0 0 0 0 0 0 0 0 0 0 0 0 0 0 0 0 0 0.279748 0"/>
<feBlend mode="normal" in2="effect1_innerShadow_2685_18" result="effect2_innerShadow_2685_18"/>
<feColorMatrix in="SourceAlpha" type="matrix" values="0 0 0 0 0 0 0 0 0 0 0 0 0 0 0 0 0 0 127 0" result="hardAlpha"/>
<feOffset dy="0.594444"/>
<feGaussianBlur stdDeviation="0.891667"/>
<feComposite in2="hardAlpha" operator="arithmetic" k2="-1" k3="1"/>
<feColorMatrix type="matrix" values="0 0 0 0 1 0 0 0 0 1 0 0 0 0 1 0 0 0 0.614012 0"/>
<feBlend mode="normal" in2="effect2_innerShadow_2685_18" result="effect3_innerShadow_2685_18"/>
<feColorMatrix in="SourceAlpha" type="matrix" values="0 0 0 0 0 0 0 0 0 0 0 0 0 0 0 0 0 0 127 0" result="hardAlpha"/>
<feOffset dx="-2.37778" dy="2.37778"/>
<feGaussianBlur stdDeviation="3.26944"/>
<feComposite in2="hardAlpha" operator="arithmetic" k2="-1" k3="1"/>
<feColorMatrix type="matrix" values="0 0 0 0 1 0 0 0 0 1 0 0 0 0 1 0 0 0 0.173997 0"/>
<feBlend mode="normal" in2="effect3_innerShadow_2685_18" result="effect4_innerShadow_2685_18"/>
</filter>
<filter id="filter4_ii_2685_18" x="309.945" y="91" width="102.245" height="319.217" filterUnits="userSpaceOnUse" color-interpolation-filters="sRGB">
<feFlood flood-opacity="0" result="BackgroundImageFix"/>
<feBlend mode="normal" in="SourceGraphic" in2="BackgroundImageFix" result="shape"/>
<feColorMatrix in="SourceAlpha" type="matrix" values="0 0 0 0 0 0 0 0 0 0 0 0 0 0 0 0 0 0 127 0" result="hardAlpha"/>
<feOffset dy="0.594444"/>
<feGaussianBlur stdDeviation="0.891667"/>
<feComposite in2="hardAlpha" operator="arithmetic" k2="-1" k3="1"/>
<feColorMatrix type="matrix" values="0 0 0 0 1 0 0 0 0 1 0 0 0 0 1 0 0 0 1 0"/>
<feBlend mode="normal" in2="shape" result="effect1_innerShadow_2685_18"/>
<feColorMatrix in="SourceAlpha" type="matrix" values="0 0 0 0 0 0 0 0 0 0 0 0 0 0 0 0 0 0 127 0" result="hardAlpha"/>
<feOffset dx="1.18889"/>
<feGaussianBlur stdDeviation="0.891667"/>
<feComposite in2="hardAlpha" operator="arithmetic" k2="-1" k3="1"/>
<feColorMatrix type="matrix" values="0 0 0 0 1 0 0 0 0 1 0 0 0 0 1 0 0 0 0.379235 0"/>
<feBlend mode="normal" in2="effect1_innerShadow_2685_18" result="effect2_innerShadow_2685_18"/>
</filter>
<linearGradient id="paint0_linear_2685_18" x1="-85.9691" y1="-144.632" x2="-85.9691" y2="527.306" gradientUnits="userSpaceOnUse">
<stop stop-color="#3E5360"/>
<stop offset="1" stop-color="#001722"/>
</linearGradient>
<linearGradient id="paint1_linear_2685_18" x1="240.079" y1="356.197" x2="384.666" y2="356.197" gradientUnits="userSpaceOnUse">
<stop stop-color="#0085D1" stop-opacity="0.01"/>
<stop offset="1" stop-color="#021E41"/>
</linearGradient>
<linearGradient id="paint2_linear_2685_18" x1="355.727" y1="303.61" x2="463.519" y2="303.61" gradientUnits="userSpaceOnUse">
<stop stop-color="#0078B8" stop-opacity="0.01"/>
<stop offset="1" stop-color="#002032"/>
</linearGradient>
<linearGradient id="paint3_linear_2685_18" x1="330.74" y1="283.036" x2="380.864" y2="283.036" gradientUnits="userSpaceOnUse">
<stop stop-color="#B4D7FF" stop-opacity="0.185418"/>
<stop offset="1" stop-color="#006AA8" stop-opacity="0.01"/>
</linearGradient>
<clipPath id="clip0_2685_18">
<rect width="500" height="500" rx="125" fill="white"/>
</clipPath>
</defs>
</svg>
